<mxfile host="Electron" agent="Mozilla/5.0 (Windows NT 10.0; Win64; x64) AppleWebKit/537.36 (KHTML, like Gecko) draw.io/25.0.2 Chrome/128.0.6613.186 Electron/32.2.5 Safari/537.36" version="25.0.2">
  <diagram id="C5RBs43oDa-KdzZeNtuy" name="Page-1">
    <mxGraphModel dx="2514" dy="2153" grid="1" gridSize="10" guides="1" tooltips="1" connect="1" arrows="1" fold="1" page="1" pageScale="1" pageWidth="827" pageHeight="1169" math="0" shadow="0">
      <root>
        <mxCell id="WIyWlLk6GJQsqaUBKTNV-0" />
        <mxCell id="WIyWlLk6GJQsqaUBKTNV-1" parent="WIyWlLk6GJQsqaUBKTNV-0" />
        <mxCell id="rUtDUcW9BXBC5pQnwHhv-4" value="Employee" style="swimlane;fontStyle=1;align=center;verticalAlign=top;childLayout=stackLayout;horizontal=1;startSize=26;horizontalStack=0;resizeParent=1;resizeParentMax=0;resizeLast=0;collapsible=1;marginBottom=0;whiteSpace=wrap;html=1;" vertex="1" parent="WIyWlLk6GJQsqaUBKTNV-1">
          <mxGeometry x="360" y="-40" width="300" height="170" as="geometry" />
        </mxCell>
        <mxCell id="rUtDUcW9BXBC5pQnwHhv-5" value="# FIO: String&lt;div&gt;# Age: int&lt;/div&gt;&lt;div&gt;# EmployeeID: String&lt;/div&gt;" style="text;strokeColor=none;fillColor=none;align=left;verticalAlign=top;spacingLeft=4;spacingRight=4;overflow=hidden;rotatable=0;points=[[0,0.5],[1,0.5]];portConstraint=eastwest;whiteSpace=wrap;html=1;" vertex="1" parent="rUtDUcW9BXBC5pQnwHhv-4">
          <mxGeometry y="26" width="300" height="54" as="geometry" />
        </mxCell>
        <mxCell id="rUtDUcW9BXBC5pQnwHhv-6" value="" style="line;strokeWidth=1;fillColor=none;align=left;verticalAlign=middle;spacingTop=-1;spacingLeft=3;spacingRight=3;rotatable=0;labelPosition=right;points=[];portConstraint=eastwest;strokeColor=inherit;" vertex="1" parent="rUtDUcW9BXBC5pQnwHhv-4">
          <mxGeometry y="80" width="300" height="8" as="geometry" />
        </mxCell>
        <mxCell id="rUtDUcW9BXBC5pQnwHhv-7" value="+ getFIO(): String&lt;div&gt;+ getAge(): int&lt;/div&gt;&lt;div&gt;+ setAge(int newValue): void&lt;/div&gt;&lt;div&gt;+ getEmployeeID(): String&lt;/div&gt;&lt;div&gt;+ Employee (String: FIO, int: Age, String: EmployeeID)&lt;/div&gt;" style="text;strokeColor=none;fillColor=none;align=left;verticalAlign=top;spacingLeft=4;spacingRight=4;overflow=hidden;rotatable=0;points=[[0,0.5],[1,0.5]];portConstraint=eastwest;whiteSpace=wrap;html=1;" vertex="1" parent="rUtDUcW9BXBC5pQnwHhv-4">
          <mxGeometry y="88" width="300" height="82" as="geometry" />
        </mxCell>
        <mxCell id="rUtDUcW9BXBC5pQnwHhv-8" value="Dispatcher" style="swimlane;fontStyle=1;align=center;verticalAlign=top;childLayout=stackLayout;horizontal=1;startSize=26;horizontalStack=0;resizeParent=1;resizeParentMax=0;resizeLast=0;collapsible=1;marginBottom=0;whiteSpace=wrap;html=1;" vertex="1" parent="WIyWlLk6GJQsqaUBKTNV-1">
          <mxGeometry x="680" y="240" width="220" height="140" as="geometry">
            <mxRectangle x="480" y="210" width="100" height="30" as="alternateBounds" />
          </mxGeometry>
        </mxCell>
        <mxCell id="rUtDUcW9BXBC5pQnwHhv-9" value="- Ð¡hange: String" style="text;strokeColor=none;fillColor=none;align=left;verticalAlign=top;spacingLeft=4;spacingRight=4;overflow=hidden;rotatable=0;points=[[0,0.5],[1,0.5]];portConstraint=eastwest;whiteSpace=wrap;html=1;" vertex="1" parent="rUtDUcW9BXBC5pQnwHhv-8">
          <mxGeometry y="26" width="220" height="26" as="geometry" />
        </mxCell>
        <mxCell id="rUtDUcW9BXBC5pQnwHhv-10" value="" style="line;strokeWidth=1;fillColor=none;align=left;verticalAlign=middle;spacingTop=-1;spacingLeft=3;spacingRight=3;rotatable=0;labelPosition=right;points=[];portConstraint=eastwest;strokeColor=inherit;" vertex="1" parent="rUtDUcW9BXBC5pQnwHhv-8">
          <mxGeometry y="52" width="220" height="8" as="geometry" />
        </mxCell>
        <mxCell id="rUtDUcW9BXBC5pQnwHhv-11" value="+ getChange(): String&lt;div&gt;+ setChange(String newVolume): void&lt;/div&gt;&lt;div&gt;+ allowBoarding(): void&lt;/div&gt;&lt;div&gt;+&amp;nbsp;prohibitBoarding(): void&lt;br&gt;&lt;div&gt;+&amp;nbsp;&lt;span style=&quot;text-align: center;&quot;&gt;Dispatcher(String: Change)&lt;/span&gt;&lt;br&gt;&lt;div&gt;&lt;br&gt;&lt;/div&gt;&lt;/div&gt;&lt;/div&gt;" style="text;strokeColor=none;fillColor=none;align=left;verticalAlign=top;spacingLeft=4;spacingRight=4;overflow=hidden;rotatable=0;points=[[0,0.5],[1,0.5]];portConstraint=eastwest;whiteSpace=wrap;html=1;" vertex="1" parent="rUtDUcW9BXBC5pQnwHhv-8">
          <mxGeometry y="60" width="220" height="80" as="geometry" />
        </mxCell>
        <mxCell id="rUtDUcW9BXBC5pQnwHhv-17" value="Pilot" style="swimlane;fontStyle=1;align=center;verticalAlign=top;childLayout=stackLayout;horizontal=1;startSize=26;horizontalStack=0;resizeParent=1;resizeParentMax=0;resizeLast=0;collapsible=1;marginBottom=0;whiteSpace=wrap;html=1;" vertex="1" parent="WIyWlLk6GJQsqaUBKTNV-1">
          <mxGeometry x="-10" y="220" width="385" height="170" as="geometry" />
        </mxCell>
        <mxCell id="rUtDUcW9BXBC5pQnwHhv-18" value="- FlightHours: int&lt;div&gt;- A&lt;span style=&quot;white-space-collapse: preserve;&quot;&gt;dmissionInternationalF&lt;/span&gt;&lt;span style=&quot;white-space-collapse: preserve;&quot; data-src-align=&quot;0:29&quot; class=&quot;aNeGP0gI0B9AV8JaHPyH&quot;&gt;lights: boolean&lt;/span&gt;&lt;br&gt;&lt;div&gt;&lt;br&gt;&lt;/div&gt;&lt;/div&gt;" style="text;strokeColor=none;fillColor=none;align=left;verticalAlign=top;spacingLeft=4;spacingRight=4;overflow=hidden;rotatable=0;points=[[0,0.5],[1,0.5]];portConstraint=eastwest;whiteSpace=wrap;html=1;" vertex="1" parent="rUtDUcW9BXBC5pQnwHhv-17">
          <mxGeometry y="26" width="385" height="44" as="geometry" />
        </mxCell>
        <mxCell id="rUtDUcW9BXBC5pQnwHhv-19" value="" style="line;strokeWidth=1;fillColor=none;align=left;verticalAlign=middle;spacingTop=-1;spacingLeft=3;spacingRight=3;rotatable=0;labelPosition=right;points=[];portConstraint=eastwest;strokeColor=inherit;" vertex="1" parent="rUtDUcW9BXBC5pQnwHhv-17">
          <mxGeometry y="70" width="385" height="8" as="geometry" />
        </mxCell>
        <mxCell id="rUtDUcW9BXBC5pQnwHhv-20" value="+ getFlightHours(): int&lt;div&gt;+ setFlightHours(int newValue): void&lt;div&gt;+ getA&lt;span style=&quot;white-space-collapse: preserve;&quot;&gt;dmissionInternationalF&lt;/span&gt;&lt;span style=&quot;white-space-collapse: preserve;&quot; data-src-align=&quot;0:29&quot; class=&quot;aNeGP0gI0B9AV8JaHPyH&quot;&gt;lights&lt;/span&gt;(): boolean&lt;div&gt;+ setA&lt;span style=&quot;white-space-collapse: preserve;&quot;&gt;dmissionInternationalF&lt;/span&gt;&lt;span style=&quot;white-space-collapse: preserve;&quot; data-src-align=&quot;0:29&quot; class=&quot;aNeGP0gI0B9AV8JaHPyH&quot;&gt;lights&lt;/span&gt;(int newValue): void&lt;/div&gt;&lt;/div&gt;&lt;div&gt;+ managePlane(Plane plane): void&lt;/div&gt;&lt;div&gt;+ Pilot(int:&amp;nbsp;&lt;span style=&quot;background-color: initial;&quot;&gt;FlightHours, boolean:&amp;nbsp;&lt;/span&gt;&lt;span style=&quot;background-color: initial;&quot;&gt;A&lt;/span&gt;&lt;span style=&quot;background-color: initial; white-space-collapse: preserve;&quot;&gt;dmissionInternationalF&lt;/span&gt;&lt;span style=&quot;background-color: initial; white-space-collapse: preserve;&quot; data-src-align=&quot;0:29&quot; class=&quot;aNeGP0gI0B9AV8JaHPyH&quot;&gt;lights&lt;/span&gt;&lt;span style=&quot;background-color: initial;&quot;&gt;)&lt;/span&gt;&lt;/div&gt;&lt;/div&gt;" style="text;strokeColor=none;fillColor=none;align=left;verticalAlign=top;spacingLeft=4;spacingRight=4;overflow=hidden;rotatable=0;points=[[0,0.5],[1,0.5]];portConstraint=eastwest;whiteSpace=wrap;html=1;" vertex="1" parent="rUtDUcW9BXBC5pQnwHhv-17">
          <mxGeometry y="78" width="385" height="92" as="geometry" />
        </mxCell>
        <mxCell id="rUtDUcW9BXBC5pQnwHhv-21" value="" style="endArrow=none;startArrow=block;endFill=0;startFill=0;html=1;rounded=0;entryX=0.5;entryY=0;entryDx=0;entryDy=0;exitX=0.541;exitY=1.018;exitDx=0;exitDy=0;exitPerimeter=0;" edge="1" parent="WIyWlLk6GJQsqaUBKTNV-1" source="rUtDUcW9BXBC5pQnwHhv-7" target="rUtDUcW9BXBC5pQnwHhv-8">
          <mxGeometry width="160" relative="1" as="geometry">
            <mxPoint x="420" y="350" as="sourcePoint" />
            <mxPoint x="580" y="350" as="targetPoint" />
          </mxGeometry>
        </mxCell>
        <mxCell id="rUtDUcW9BXBC5pQnwHhv-22" value="" style="endArrow=block;startArrow=none;endFill=0;startFill=0;html=1;rounded=0;exitX=0.5;exitY=0;exitDx=0;exitDy=0;entryX=0.374;entryY=1.028;entryDx=0;entryDy=0;entryPerimeter=0;" edge="1" parent="WIyWlLk6GJQsqaUBKTNV-1" source="rUtDUcW9BXBC5pQnwHhv-17" target="rUtDUcW9BXBC5pQnwHhv-7">
          <mxGeometry width="160" relative="1" as="geometry">
            <mxPoint x="290" y="490" as="sourcePoint" />
            <mxPoint x="450" y="490" as="targetPoint" />
          </mxGeometry>
        </mxCell>
        <mxCell id="rUtDUcW9BXBC5pQnwHhv-23" value="&lt;div style=&quot;text-align: start;&quot;&gt;CommunicationChannel&lt;/div&gt;" style="swimlane;fontStyle=1;align=center;verticalAlign=top;childLayout=stackLayout;horizontal=1;startSize=26;horizontalStack=0;resizeParent=1;resizeParentMax=0;resizeLast=0;collapsible=1;marginBottom=0;whiteSpace=wrap;html=1;" vertex="1" parent="WIyWlLk6GJQsqaUBKTNV-1">
          <mxGeometry x="520" y="530" width="250" height="180" as="geometry" />
        </mxCell>
        <mxCell id="rUtDUcW9BXBC5pQnwHhv-24" value="- TypeChannel: String&lt;div&gt;- Message: String&lt;br&gt;&lt;div&gt;&lt;br&gt;&lt;/div&gt;&lt;/div&gt;" style="text;strokeColor=none;fillColor=none;align=left;verticalAlign=top;spacingLeft=4;spacingRight=4;overflow=hidden;rotatable=0;points=[[0,0.5],[1,0.5]];portConstraint=eastwest;whiteSpace=wrap;html=1;" vertex="1" parent="rUtDUcW9BXBC5pQnwHhv-23">
          <mxGeometry y="26" width="250" height="44" as="geometry" />
        </mxCell>
        <mxCell id="rUtDUcW9BXBC5pQnwHhv-25" value="" style="line;strokeWidth=1;fillColor=none;align=left;verticalAlign=middle;spacingTop=-1;spacingLeft=3;spacingRight=3;rotatable=0;labelPosition=right;points=[];portConstraint=eastwest;strokeColor=inherit;" vertex="1" parent="rUtDUcW9BXBC5pQnwHhv-23">
          <mxGeometry y="70" width="250" height="8" as="geometry" />
        </mxCell>
        <mxCell id="rUtDUcW9BXBC5pQnwHhv-26" value="&lt;div&gt;+getTypeChannel(): String&lt;/div&gt;&lt;div&gt;+getMessage(): String&lt;/div&gt;&lt;div&gt;+sendMessage(): void&lt;/div&gt;&lt;div&gt;+takeMessage(): void&lt;/div&gt;&lt;div&gt;+&lt;span style=&quot;background-color: initial;&quot;&gt;CommunicationChannel(String: TypeChannel, String: Message)&lt;/span&gt;&lt;/div&gt;" style="text;strokeColor=none;fillColor=none;align=left;verticalAlign=top;spacingLeft=4;spacingRight=4;overflow=hidden;rotatable=0;points=[[0,0.5],[1,0.5]];portConstraint=eastwest;whiteSpace=wrap;html=1;" vertex="1" parent="rUtDUcW9BXBC5pQnwHhv-23">
          <mxGeometry y="78" width="250" height="102" as="geometry" />
        </mxCell>
        <mxCell id="rUtDUcW9BXBC5pQnwHhv-27" value="Plane" style="swimlane;fontStyle=1;align=center;verticalAlign=top;childLayout=stackLayout;horizontal=1;startSize=26;horizontalStack=0;resizeParent=1;resizeParentMax=0;resizeLast=0;collapsible=1;marginBottom=0;whiteSpace=wrap;html=1;" vertex="1" parent="WIyWlLk6GJQsqaUBKTNV-1">
          <mxGeometry x="150" y="530" width="295" height="180" as="geometry" />
        </mxCell>
        <mxCell id="rUtDUcW9BXBC5pQnwHhv-28" value="- SerialNumber: String&lt;div&gt;- CntPassengers: int&lt;/div&gt;" style="text;strokeColor=none;fillColor=none;align=left;verticalAlign=top;spacingLeft=4;spacingRight=4;overflow=hidden;rotatable=0;points=[[0,0.5],[1,0.5]];portConstraint=eastwest;whiteSpace=wrap;html=1;" vertex="1" parent="rUtDUcW9BXBC5pQnwHhv-27">
          <mxGeometry y="26" width="295" height="44" as="geometry" />
        </mxCell>
        <mxCell id="rUtDUcW9BXBC5pQnwHhv-29" value="" style="line;strokeWidth=1;fillColor=none;align=left;verticalAlign=middle;spacingTop=-1;spacingLeft=3;spacingRight=3;rotatable=0;labelPosition=right;points=[];portConstraint=eastwest;strokeColor=inherit;" vertex="1" parent="rUtDUcW9BXBC5pQnwHhv-27">
          <mxGeometry y="70" width="295" height="8" as="geometry" />
        </mxCell>
        <mxCell id="rUtDUcW9BXBC5pQnwHhv-30" value="+ getSerialNumber(): String&lt;div&gt;+ get&lt;span style=&quot;background-color: initial;&quot;&gt;CntPassengers(): int&lt;/span&gt;&lt;/div&gt;&lt;div&gt;+ set&lt;span style=&quot;background-color: initial;&quot;&gt;CntPassengers(int newValue): void&lt;/span&gt;&lt;span style=&quot;background-color: initial;&quot;&gt;&lt;br&gt;&lt;/span&gt;&lt;/div&gt;&lt;div&gt;&lt;span style=&quot;background-color: initial;&quot;&gt;+&amp;nbsp;&lt;/span&gt;&lt;span style=&quot;background-color: initial;&quot;&gt;takeoff(): void&lt;/span&gt;&lt;/div&gt;&lt;div&gt;&lt;span style=&quot;background-color: initial;&quot;&gt;+&amp;nbsp;&lt;/span&gt;&lt;span style=&quot;background-color: initial;&quot;&gt;boarding(): void&lt;/span&gt;&lt;/div&gt;&lt;div&gt;&lt;span style=&quot;background-color: initial;&quot;&gt;+ Plane(String:&amp;nbsp;&lt;/span&gt;&lt;span style=&quot;background-color: initial;&quot;&gt;SerialNumber, int:&amp;nbsp;&lt;/span&gt;&lt;span style=&quot;background-color: initial;&quot;&gt;CntPassengers&lt;/span&gt;&lt;span style=&quot;background-color: initial;&quot;&gt;)&lt;/span&gt;&lt;/div&gt;&lt;div&gt;&lt;span style=&quot;background-color: initial;&quot;&gt;&lt;br&gt;&lt;/span&gt;&lt;/div&gt;" style="text;strokeColor=none;fillColor=none;align=left;verticalAlign=top;spacingLeft=4;spacingRight=4;overflow=hidden;rotatable=0;points=[[0,0.5],[1,0.5]];portConstraint=eastwest;whiteSpace=wrap;html=1;" vertex="1" parent="rUtDUcW9BXBC5pQnwHhv-27">
          <mxGeometry y="78" width="295" height="102" as="geometry" />
        </mxCell>
        <mxCell id="rUtDUcW9BXBC5pQnwHhv-31" value="" style="html=1;verticalAlign=bottom;endArrow=none;curved=0;rounded=0;exitX=0.5;exitY=0;exitDx=0;exitDy=0;endFill=0;startArrow=open;startFill=0;" edge="1" parent="WIyWlLk6GJQsqaUBKTNV-1" source="rUtDUcW9BXBC5pQnwHhv-27" target="rUtDUcW9BXBC5pQnwHhv-17">
          <mxGeometry width="80" relative="1" as="geometry">
            <mxPoint x="110" y="420" as="sourcePoint" />
            <mxPoint x="190" y="420" as="targetPoint" />
          </mxGeometry>
        </mxCell>
        <mxCell id="rUtDUcW9BXBC5pQnwHhv-32" value="&lt;b&gt;Ð£Ð¿ÑÐ°Ð²Ð»ÑÐµÑ&lt;/b&gt;" style="text;html=1;align=center;verticalAlign=middle;resizable=0;points=[];autosize=1;strokeColor=none;fillColor=none;" vertex="1" parent="WIyWlLk6GJQsqaUBKTNV-1">
          <mxGeometry x="260" y="440" width="90" height="30" as="geometry" />
        </mxCell>
        <mxCell id="rUtDUcW9BXBC5pQnwHhv-33" value="&lt;b&gt;&lt;font style=&quot;font-size: 20px;&quot;&gt;*&lt;/font&gt;&lt;/b&gt;" style="text;html=1;align=center;verticalAlign=middle;resizable=0;points=[];autosize=1;strokeColor=none;fillColor=none;" vertex="1" parent="WIyWlLk6GJQsqaUBKTNV-1">
          <mxGeometry x="230" y="390" width="30" height="40" as="geometry" />
        </mxCell>
        <mxCell id="rUtDUcW9BXBC5pQnwHhv-34" value="&lt;span style=&quot;font-size: 20px;&quot;&gt;&lt;b&gt;*&lt;/b&gt;&lt;/span&gt;" style="text;html=1;align=center;verticalAlign=middle;resizable=0;points=[];autosize=1;strokeColor=none;fillColor=none;" vertex="1" parent="WIyWlLk6GJQsqaUBKTNV-1">
          <mxGeometry x="290" y="490" width="30" height="40" as="geometry" />
        </mxCell>
        <mxCell id="rUtDUcW9BXBC5pQnwHhv-35" value="" style="html=1;verticalAlign=bottom;endArrow=none;curved=0;rounded=0;exitX=0.25;exitY=0;exitDx=0;exitDy=0;endFill=0;startArrow=open;startFill=0;" edge="1" parent="WIyWlLk6GJQsqaUBKTNV-1" source="rUtDUcW9BXBC5pQnwHhv-23" target="rUtDUcW9BXBC5pQnwHhv-17">
          <mxGeometry width="80" relative="1" as="geometry">
            <mxPoint x="530" y="480" as="sourcePoint" />
            <mxPoint x="458" y="340" as="targetPoint" />
          </mxGeometry>
        </mxCell>
        <mxCell id="rUtDUcW9BXBC5pQnwHhv-37" value="&lt;b&gt;&lt;font style=&quot;font-size: 20px;&quot;&gt;*&lt;/font&gt;&lt;/b&gt;" style="text;html=1;align=center;verticalAlign=middle;resizable=0;points=[];autosize=1;strokeColor=none;fillColor=none;" vertex="1" parent="WIyWlLk6GJQsqaUBKTNV-1">
          <mxGeometry x="375" y="390" width="30" height="40" as="geometry" />
        </mxCell>
        <mxCell id="rUtDUcW9BXBC5pQnwHhv-38" value="&lt;b&gt;1&lt;/b&gt;" style="text;html=1;align=center;verticalAlign=middle;resizable=0;points=[];autosize=1;strokeColor=none;fillColor=none;" vertex="1" parent="WIyWlLk6GJQsqaUBKTNV-1">
          <mxGeometry x="540" y="490" width="30" height="30" as="geometry" />
        </mxCell>
        <mxCell id="rUtDUcW9BXBC5pQnwHhv-39" value="" style="html=1;verticalAlign=bottom;endArrow=none;curved=0;rounded=0;exitX=0.609;exitY=0.013;exitDx=0;exitDy=0;endFill=0;startArrow=open;startFill=0;exitPerimeter=0;" edge="1" parent="WIyWlLk6GJQsqaUBKTNV-1" source="rUtDUcW9BXBC5pQnwHhv-23" target="rUtDUcW9BXBC5pQnwHhv-8">
          <mxGeometry width="80" relative="1" as="geometry">
            <mxPoint x="760" y="530" as="sourcePoint" />
            <mxPoint x="525" y="390" as="targetPoint" />
          </mxGeometry>
        </mxCell>
        <mxCell id="rUtDUcW9BXBC5pQnwHhv-40" value="&lt;b&gt;&lt;font style=&quot;font-size: 20px;&quot;&gt;*&lt;/font&gt;&lt;/b&gt;" style="text;html=1;align=center;verticalAlign=middle;resizable=0;points=[];autosize=1;strokeColor=none;fillColor=none;" vertex="1" parent="WIyWlLk6GJQsqaUBKTNV-1">
          <mxGeometry x="710" y="390" width="30" height="40" as="geometry" />
        </mxCell>
        <mxCell id="rUtDUcW9BXBC5pQnwHhv-41" value="&lt;b&gt;1&lt;/b&gt;" style="text;html=1;align=center;verticalAlign=middle;resizable=0;points=[];autosize=1;strokeColor=none;fillColor=none;" vertex="1" parent="WIyWlLk6GJQsqaUBKTNV-1">
          <mxGeometry x="650" y="480" width="30" height="30" as="geometry" />
        </mxCell>
        <mxCell id="rUtDUcW9BXBC5pQnwHhv-42" value="&lt;b&gt;ÐÐ±ÑÐ°ÐµÑÑÑ ÑÐµÑÐµÐ·&lt;/b&gt;" style="text;html=1;align=center;verticalAlign=middle;resizable=0;points=[];autosize=1;strokeColor=none;fillColor=none;" vertex="1" parent="WIyWlLk6GJQsqaUBKTNV-1">
          <mxGeometry x="430" y="430" width="120" height="30" as="geometry" />
        </mxCell>
        <mxCell id="rUtDUcW9BXBC5pQnwHhv-43" value="&lt;b&gt;ÐÐ±ÑÐ°ÐµÑÑÑ ÑÐµÑÐµÐ·&lt;/b&gt;" style="text;html=1;align=center;verticalAlign=middle;resizable=0;points=[];autosize=1;strokeColor=none;fillColor=none;" vertex="1" parent="WIyWlLk6GJQsqaUBKTNV-1">
          <mxGeometry x="600" y="430" width="120" height="30" as="geometry" />
        </mxCell>
      </root>
    </mxGraphModel>
  </diagram>
</mxfile>
